<svg fill="none" height="20" viewBox="0 0 22 20" width="22" xmlns="http://www.w3.org/2000/svg"><path d="m4.829 2c-.6784.18169-1.297.53879-1.7936 1.0354-.49661.4966-.85371 1.1152-1.0354 1.7936m14.899-2.829c.6784.18169 1.297.53879 1.7936 1.0354.4966.4966.8537 1.1152 1.0354 1.7936" stroke="#2bc643" stroke-linecap="round" stroke-width="2"/><path clip-rule="evenodd" d="m10.8638 18.8638c2.1217 0 4.1565-.8429 5.6568-2.3432s2.3432-3.5351 2.3432-5.6568c0-2.12176-.8429-4.15659-2.3432-5.65688-1.5003-1.5003-3.5351-2.34315-5.6568-2.34315-2.12176 0-4.15659.84285-5.65688 2.34315-1.5003 1.50029-2.34315 3.53512-2.34315 5.65688 0 2.1217.84285 4.1565 2.34315 5.6568 1.50029 1.5003 3.53512 2.3432 5.65688 2.3432zm1-12.00003c0-.26522-.1054-.51957-.2929-.70711-.1876-.18753-.4419-.29289-.7071-.29289s-.5196.10536-.7071.29289c-.18757.18754-.29293.44189-.29293.70711v3.75003c0 .69.56003 1.25 1.25003 1.25h2.75c.2652 0 .5195-.1054.7071-.2929.1875-.1876.2929-.4419.2929-.7071s-.1054-.5196-.2929-.7071c-.1876-.18757-.4419-.29293-.7071-.29293h-2z" fill="#2bc643" fill-rule="evenodd"/></svg>