<svg fill="none" height="50" viewBox="0 0 51 50" width="51" xmlns="http://www.w3.org/2000/svg"><path d="m38.0004 4.21574c3.6199 2.09005 6.6312 5.08926 8.7357 8.70076 2.1045 3.6114 3.2294 7.7099 3.2631 11.8897.0338 4.1797-1.0247 8.2958-3.0706 11.9408s-5.0083 6.6924-8.594 8.8407c-3.5856 2.1483-7.6702 3.3228-11.8493 3.4074s-8.3078-.9238-11.9774-2.9252-6.75294-4.9265-8.94466-8.4857c-2.19171-3.5592-3.41586-7.6292-3.55124-11.8069l-.012-.7776.012-.7776c.13441-4.1448 1.34053-8.1841 3.50078-11.724 2.16024-3.5399 5.20092-6.45967 8.82552-8.47464s7.7095-3.056366 11.8564-3.02267c4.1469.0337 8.2143 1.14135 11.8057 3.21495zm-12.0001 6.38396c-.5879.0001-1.1552.2159-1.5945.6066-.4393.3906-.72.9288-.7887 1.5126l-.0168.2808v12l.0216.3144c.0547.4164.2177.8112.4728 1.1448l.2088.24 7.2001 7.2.2256.1968c.4209.3266.9385.5038 1.4712.5038s1.0503-.1772 1.4712-.5038l.2256-.1992.1992-.2256c.3266-.4209.5038-.9384.5038-1.4712 0-.5327-.1772-1.0503-.5038-1.4712l-.1992-.2256-6.4969-6.4992v-11.004l-.0168-.2808c-.0688-.5838-.3494-1.122-.7887-1.5126-.4393-.3907-1.0067-.6065-1.5945-.6066z" fill="#b70dea"/></svg>