<svg fill="none" height="22" viewBox="0 0 24 22" width="24" xmlns="http://www.w3.org/2000/svg"><path d="m11.5244 1.08203c.1497-.460653.8015-.460655.9512 0l1.9678 6.05567c.2009.61779.777 1.03613 1.4267 1.03613h6.3672c.4841.00016.6854.61956.2939.90429l-5.1513 3.74318c-.5257.382-.7457 1.0587-.5449 1.6767l1.9677 6.0557c.1496.4606-.3777.8433-.7695.5586l-5.1514-3.7422c-.5257-.3819-1.2379-.382-1.7636 0l-5.1514 3.7422c-.39183.2847-.91909-.098-.76953-.5586l1.96777-6.0557c.20081-.618-.01923-1.2947-.54492-1.6767l-5.15137-3.74318c-.39149-.28473-.19018-.90412.29395-.90429h6.36718c.64969 0 1.22582-.41834 1.42676-1.03613z" stroke="#d9d9d9"/></svg>