<svg fill="none" height="22" viewBox="0 0 24 22" width="24" xmlns="http://www.w3.org/2000/svg"><path d="m11.0489.927049c.2994-.9213105 1.6028-.92130907 1.9022.000002l1.9676 6.055729c.1339.41202.5178.69098.951.69098h6.3674c.9687 0 1.3715 1.23962.5878 1.80902l-5.1513 3.74262c-.3505.2547-.4972.706-.3633 1.1181l1.9676 6.0557c.2994.9213-.7551 1.6874-1.5388 1.118l-5.1513-3.7426c-.3505-.2547-.8251-.2547-1.1756 0l-5.1513 3.7426c-.78371.5694-1.83819-.1967-1.53884-1.118l1.96763-6.0557c.13387-.4121-.01279-.8634-.36327-1.1181l-5.15131-3.74262c-.783718-.5694-.380942-1.80902.58778-1.80902h6.36737c.43323 0 .81718-.27896.95106-.69098z" fill="#d9d9d9"/></svg>