<svg fill="none" height="24" viewBox="0 0 24 24" width="24" xmlns="http://www.w3.org/2000/svg"><path d="m12 1c-2.17559 0-4.30233.64514-6.11127 1.85383-1.80894 1.2087-3.21884 2.92666-4.0514 4.93665s-1.050401 4.22172-.62596 6.35552c.42443 2.1338 1.47208 4.0938 3.01046 5.6322s3.49839 2.586 5.63218 3.0104c2.13379.4245 4.34549.2066 6.35549-.6259 2.01-.8326 3.728-2.2425 4.9367-4.0514 1.2087-1.809 1.8538-3.9357 1.8538-6.1113 0-2.91738-1.1589-5.71527-3.2218-7.77817s-4.8608-3.22183-7.7782-3.22183zm5.707 8.707-7 7c-.1875.1875-.4418.2928-.707.2928-.26516 0-.51947-.1053-.707-.2928l-3-3c-.18215-.1886-.28295-.4412-.28067-.7034s.10745-.513.29286-.6984c.1854-.1854.43622-.2906.69841-.2929.2622-.0023.5148.0985.7034.2807l2.293 2.293 6.293-6.293c.1886-.18216.4412-.28295.7034-.28067.2622.00227.513.10744.6984.29285s.2906.43622.2929.69842-.0985.5148-.2807.7034z" fill="#2bc643"/></svg>