<svg fill="none" height="19" viewBox="0 0 19 19" width="19" xmlns="http://www.w3.org/2000/svg" xmlns:xlink="http://www.w3.org/1999/xlink"><clipPath id="a"><path d="m.426758.563965h17.9776v17.9776h-17.9776z"/></clipPath><g clip-path="url(#a)"><path d="m9.41554 6.18195c-.62023 0-1.1236.50337-1.1236 1.1236v2.92135l-.79101.7905c-.2809.2809-.33259.5455-.33259.7825 0 .6203.50337 1.1236 1.1236 1.1236.32472 0 .58427-.1354.78202-.3325l1.16344-1.163c.1669-.1668.3017-.4269.3017-.7517v-3.37075c0-.62023-.5033-1.1236-1.12356-1.1236zm0-3.37079c-4.34383 0-7.86518 3.52135-7.86518 7.86514 0 1.7703.59213 3.3989 1.57921 4.7135l-1.25281 1.2528c-.21798.2169-.3264.477-.3264.7753 0 .6674.57078 1.1236 1.12359 1.1236.28989 0 .55394-.1045.77528-.3258l1.25282-1.2528c1.3146.9865 2.94326 1.5786 4.71349 1.5786 1.77026 0 3.39886-.5921 4.71346-1.5792l1.2528 1.2528c.2214.2219.4854.3264.7753.3264.5528 0 1.1236-.4567 1.1236-1.1236 0-.2983-.1084-.5584-.3258-.7753l-1.2528-1.2528c.9865-1.3146 1.5786-2.9432 1.5786-4.7135 0-4.34379-3.5213-7.86514-7.86516-7.86514zm0 13.48314c-3.10226 0-5.61799-2.5157-5.61799-5.618 0-3.10221 2.51573-5.61795 5.61799-5.61795s5.61796 2.51574 5.61796 5.61795c0 3.1023-2.5157 5.618-5.61796 5.618zm5.61796-15.730335c-1.1966 0-2.2449.625285-2.8432 1.565175 2.2095.71629 4.0443 2.26124 5.1342 4.27304.663-.61517 1.0798-1.49214 1.0798-2.46742 0-1.86124-1.5095-3.370795-3.3708-3.370795zm-8.39269 1.565175c-.59831-.93989-1.64663-1.565175-2.84326-1.565175-1.86124 0-3.370792 1.509555-3.370792 3.370795 0 .97528.416854 1.85225 1.079772 2.46798 1.08933-2.0118 2.92473-3.55675 5.13428-4.2736z" fill="#fff"/></g></svg>