<svg fill="none" height="109" viewBox="0 0 261 109" width="261" xmlns="http://www.w3.org/2000/svg"><path d="m6.5 108.5-5.78009-16.3276 17.03019 3.1581zm253-108 1.5-.000002c0 2.195812-.065 4.293122-.193 6.295422l-1.497-.0956-1.496-.0956c.123-1.93378.186-3.96713.186-6.104218zm-1.918 17.9076 1.455.3652c-1.112 4.4292-2.687 8.2031-4.7 11.3819l-1.267-.8026-1.267-.8025c1.815-2.8672 3.277-6.3357 4.324-10.5071zm-12.859 19.2703.789 1.2756c-3.443 2.1304-7.353 3.516-11.63 4.3156l-.276-1.4744-.275-1.4745c3.987-.7455 7.533-2.0186 10.603-3.9179zm-22.968 4.9498-.035 1.4996c-3.838-.0885-7.877-.4552-12.081-1.0328l.204-1.486.205-1.4861c4.119.5661 8.042.9205 11.741 1.0057zm-23.719-3.0625-.298 1.47c-3.795-.7696-7.694-1.6492-11.674-2.5999l.348-1.459.349-1.4589c3.957.9452 7.821 1.8167 11.573 2.5777zm-23.207-5.4675-.371 1.4533c-3.803-.9714-7.671-1.9755-11.57-2.9775l.374-1.4528.373-1.4528c3.909 1.0048 7.763 2.0053 11.566 2.9765zm-23.151-5.9018-.359 1.4566c-3.848-.9463-7.718-1.8654-11.597-2.7305l.326-1.4641.327-1.464c3.905.871 7.798 1.7954 11.661 2.7454zm-23.329-5.1538-.277 1.4742c-3.916-.7361-7.826-1.3895-11.714-1.9327l.207-1.4856.208-1.4856c3.942.5507 7.898 1.2121 11.853 1.9555zm-23.651-3.2402-.113 1.4957c-3.979-.3023-7.9167-.4556-11.7985-.4297l-.01-1.5-.01-1.4999c3.9738-.0265 7.9945.1305 12.0455.4382zm-23.8222.2522.1688 1.4905c-3.9376.4461-7.7933 1.1235-11.5495 2.0665l-.3653-1.4549-.3652-1.4548c3.8973-.9784 7.885-1.6781 11.9423-2.1377zm-23.0448 5.8893.5906 1.3789c-3.5403 1.5162-6.966 3.3341-10.2599 5.4891l-.8212-1.2552-.8213-1.2552c3.4455-2.2543 7.0262-4.1539 10.7213-5.7365zm-19.8344 12.9747 1.0266 1.0937c-2.7323 2.5643-5.3472 5.4356-7.8305 8.6421l-1.1859-.9184-1.186-.9185c2.5771-3.3276 5.2981-6.3167 8.1493-8.9927zm-14.6066 18.7011 1.2979.752c-1.8708 3.2289-3.6401 6.7132-5.2987 10.4697l-1.3722-.6058-1.3722-.6059c1.7001-3.8505 3.5185-7.4329 5.4473-10.762zm-9.6946 21.7629 1.4205.4819c-1.2292 3.6235-2.3727 7.4537-3.4248 11.5005l-1.4518-.3774-1.45172-.3775c1.06934-4.1128 2.23332-8.0129 3.48732-11.7093z" fill="#2bc643"/></svg>