<svg fill="none" height="166" viewBox="0 0 494 166" width="494" xmlns="http://www.w3.org/2000/svg"><path d="m483.789 165.5 9.567-14.439-17.288-1.065zm-481.96967-164.5-1.499223-.048399c-.070224 2.175259-.070456 4.297719-.002069 6.368529l1.499182-.04951 1.49918-.04951c-.06614-2.00301-.06606-4.06011.00214-6.17271zm1.23505 18.0734-1.47535.2707c.76721 4.18 1.86478 8.1104 3.27634 11.8036l1.40115-.5355 1.40114-.5355c-1.34293-3.5137-2.39229-7.2662-3.12792-11.2741zm8.63122 22.2856-1.2608.8125c2.2302 3.4605 4.8014 6.6499 7.6874 9.5865l1.0698-1.0514 1.0699-1.0514c-2.7483-2.7965-5.1902-5.8267-7.3055-9.1088zm16.6323 17.0781-.8666 1.2244c3.2429 2.2954 6.7353 4.3853 10.4556 6.2865l.6826-1.3357.6825-1.3357c-3.6047-1.8421-6.9726-3.859-10.0875-6.0638zm21.2938 11.019-.5292 1.4036c3.7193 1.4022 7.6089 2.6653 11.6541 3.8009l.4054-1.4442.4054-1.4442c-3.9701-1.1145-7.7765-2.351-11.4065-3.7196zm23.1265 6.5867-.3085 1.4679c3.8505.8092 7.8152 1.5262 11.8842 2.159l.2305-1.4822.2305-1.4821c-4.0216-.6255-7.9341-1.3332-11.7282-2.1305zm23.8371 3.7438-.167 1.4907c3.9057.4374 7.8907.8108 11.9497 1.1259l.116-1.4955.116-1.4955c-4.027-.3127-7.979-.6829-11.8477-1.1163zm23.9167 1.8796-.075 1.4982c3.98.1971 8.018.3471 12.109.4551l.04-1.4995.04-1.4994c-4.071-.1075-8.086-.2567-12.04-.4525zm24.047.6537-.011 1.4999c4.008.0304 8.058.0268 12.147-.0062l-.012-1.4999-.013-1.5c-4.074.0329-8.109.0365-12.1.0062zm24.077-.1808.031 1.4997c4.004-.0828 8.037-.189 12.095-.3146l-.046-1.4993-.047-1.4993c-4.049.1253-8.072.2313-12.064.3138zm24.07-.7356.058 1.4989c4.002-.156 8.023-.3268 12.059-.5087l-.068-1.4985-.068-1.4984c-4.03.1816-8.044.3521-12.04.5079zm24.055-1.0769.074 1.4982c4.004-.1976 8.018-.4024 12.036-.611l-.078-1.498-.078-1.498c-4.016.2085-8.027.4132-12.028.6107zm24.045-1.2416.079 1.4979c4.01-.2119 8.019-.4239 12.025-.6327l-.078-1.498-.078-1.498c-4.007.2089-8.018.421-12.027.6329zm24.041-1.2467.074 1.4981c4.019-.2 8.029-.3933 12.026-.5762l-.068-1.4984-.069-1.4985c-4.002.1831-8.016.3766-12.038.5769zm24.042-1.0931.06 1.4988c4.033-.1611 8.048-.3078 12.039-.4364l-.048-1.4992-.048-1.4992c-4.001.1288-8.023.2758-12.063.4372zm24.045-.7666.033 1.4996c4.053-.0908 8.076-.1585 12.065-.1989l-.016-1.5-.015-1.4999c-4.002.0406-8.037.1085-12.101.1996zm24.032-.2348-.007 1.5c4.079.0191 8.114.0721 12.1.1636l.034-1.4996.035-1.4996c-4.006-.092-8.059-.1452-12.155-.1644zm24.095.5657-.067 1.4985c4.069.1825 8.076.4124 12.016.6949l.108-1.4961.107-1.4962c-3.969-.2846-8.003-.516-12.097-.6996zm24.063 1.7482-.156 1.4918c4.009.419 7.935.9027 11.769 1.4571l.214-1.4845.215-1.4846c-3.876-.5606-7.841-1.049-11.886-1.4717zm23.81 3.4927-.289 1.472c4.005.7853 7.888 1.6644 11.637 2.6452l.38-1.4512.379-1.4511c-3.815-.998-7.758-1.8907-11.819-2.6869zm23.146 6.1173-.492 1.4169c3.87 1.3444 7.557 2.8256 11.049 4.4545l.634-1.3594.634-1.3594c-3.593-1.6762-7.376-3.1951-11.332-4.5696zm21.776 10.286-.806 1.2648c3.389 2.1615 6.521 4.5165 9.376 7.0795l1.002-1.116 1.002-1.116c-2.987-2.682-6.251-5.1347-9.767-7.377zm17.68 16.0183-1.196.904c2.324 3.076 4.346 6.391 6.045 9.963l1.354-.645 1.355-.644c-1.787-3.757-3.915-7.245-6.361-10.482zm10.289 21.525-1.452.377c.95 3.663 1.625 7.552 2.008 11.682l1.494-.139 1.493-.138c-.397-4.28-1.099-8.33-2.091-12.158z" fill="#2bc643"/></svg>