<svg fill="none" height="60" viewBox="0 0 128 60" width="128" xmlns="http://www.w3.org/2000/svg"><path d="m128 37.1453-17.308-.6701 8.074 15.3238zm-128-35.1453v1.5c1.96158 0 3.81189.08302 5.55902.24166l.13565-1.49385.13564-1.493859c-1.84315-.167363-3.78421-.253951-5.83031-.253951zm16.7921 2.60997-.511 1.41028c3.7175 1.34696 6.7797 3.17368 9.3682 5.33385l.9611-1.1516.9611-1.15165c-2.8528-2.3808-6.219-4.3839-10.2684-5.85116zm17.2237 14.15003-1.2606.8129c1.995 3.0938 3.6428 6.4345 5.1845 9.852l1.3673-.6168 1.3673-.6169c-1.5648-3.4685-3.2838-6.9657-5.3978-10.2441zm9.896 20.4421-1.3576.6379c1.6962 3.61 3.5694 7.0771 5.9413 10.0617l1.1743-.9332 1.1744-.9333c-2.1588-2.7164-3.916-5.9406-5.5748-9.471zm14.5724 16.7213-.5991 1.3752c3.2642 1.4221 7.0969 2.2028 11.672 2.2014l-.0004-1.5-.0005-1.5c-4.2271.0013-7.642-.7184-10.4729-1.9517zm22.3045.7461.3153 1.4665c3.4049-.7321 7.122-1.7724 11.1906-3.1523l-.4818-1.4205-.4818-1.4206c-3.9782 1.3494-7.5832 2.3564-10.8576 3.0605zm21.5273-7.109.579 1.3838c3.274-1.3697 6.74-2.9208 10.411-4.6649l-.643-1.3549-.644-1.3549c-3.634 1.7261-7.056 3.2576-10.282 4.6072z" fill="#b70dea"/></svg>