<svg fill="none" height="53" viewBox="0 0 139 53" width="139" xmlns="http://www.w3.org/2000/svg"><path d="m130 53 8.153-15.2817-17.311.5802zm-128-53-1.5-.00000002c0 2.64110002.92761 4.75467002 2.71215 6.29884002l.98152-1.1343.98151-1.1343c-1.06055-.91769-1.67518-2.16956-1.67518-4.03023998zm13.1956 8.07028-.0484 1.49922c3.4779.11222 7.469-.09297 11.8003-.46082l-.1269-1.49462-.127-1.49461c-4.2869.36407-8.1438.55828-11.4496.45161zm23.141-1.63771.1672 1.49065c3.7173-.41696 7.5732-.85971 11.5182-1.26611l-.1537-1.49211-.1537-1.4921c-3.9625.40821-7.8383.85322-11.5452 1.26902zm23.0894-2.28189.1025 1.49649c3.8366-.26285 7.6873-.43718 11.498-.46937l-.0127-1.49994-.0127-1.49995c-3.8837.03281-7.7959.21034-11.6776.47628zm23.1731-.06804-.1272 1.49459c3.8872.33086 7.6564.88144 11.2452 1.71237l.3384-1.46134.3383-1.46134c-3.7525-.86883-7.6658-1.43828-11.6675-1.77888zm22.4129 5.47477-.642 1.35549c3.404 1.6134 6.514 3.6291 9.255 6.1234l1.01-1.1094 1.009-1.1095c-2.985-2.7156-6.348-4.88985-9.989-6.61548zm16.786 15.40509-1.308.7351c1.69 3.0057 3.07 6.4418 4.079 10.3684l1.453-.3735 1.453-.3735c-1.069-4.1579-2.542-7.8401-4.37-11.0916z" fill="#b70dea"/></svg>